# xmcd
#
# Track frame offsets: 
#        200
#        22807
#        43562
#        75865
#        92420
#        109962
#        128840
#        149597
#        169257
#        194375
#
# Disc length: 3069 seconds
#
# Revision: 0
# Processed by: cddbd v1.5.2PL0 Copyright (c) Steve Scherf et al.
# Submitted via: ExactAudioCopy v0.99pb5
#
DISCID=790bfb0a
DTITLE=Jimmy and The Soulcats - Things Have Gotta Change
DYEAR=1994
DGENRE=Blues
TTITLE0=Don't Come Back
TTITLE1=You're Not The One
TTITLE2=I'm Sorry Baby
TTITLE3=Things Have Gotta Change
TTITLE4=Cajun Queen
TTITLE5=Just Call
TTITLE6=I've Been Used
TTITLE7=Black Stain Shoes
TTITLE8=Still In Love With You
TTITLE9=Route 17
EXTD=
EXTT0=
EXTT1=
EXTT2=
EXTT3=
EXTT4=
EXTT5=
EXTT6=
EXTT7=
EXTT8=
EXTT9=
PLAYORDER=
